<?xml version="1.0" encoding="utf-8"?>
<!-- Generator: Adobe Illustrator 16.0.3, SVG Export Plug-In . SVG Version: 6.00 Build 0)  -->
<!DOCTYPE svg PUBLIC "-//W3C//DTD SVG 1.1//EN" "http://www.w3.org/Graphics/SVG/1.1/DTD/svg11.dtd">
<svg version="1.1" id="Layer_1" xmlns="http://www.w3.org/2000/svg" xmlns:xlink="http://www.w3.org/1999/xlink" x="0px" y="0px"
	 width="600px" height="313px" viewBox="0 0 600 313" enable-background="new 0 0 600 313" xml:space="preserve">
<g>
	<path fill="#333333" d="M96.794,77.896c-1.06-12.747-6.37-24.64-15.822-34.093c-14.02-14.019-36.751-13.808-51.087,0.53
		C15.547,58.669,15.333,81.4,29.354,95.422c9.453,9.452,21.349,14.758,34.091,15.822v1.062l-14.018,14.018
		c-11.896-1.91-22.942-7.858-33.03-17.946c-21.774-21.772-21.774-56.821-0.53-78.063c21.24-21.24,56.289-21.242,78.063,0.532
		c10.086,10.086,16.034,21.135,17.944,33.03L97.858,77.893L96.794,77.896z"/>
	<path fill="#333333" d="M229.989,11.256l-0.002,1.066l-27.612,27.614l37.702,37.7l27.612-27.614h1.066l11.358,11.365l0.003,1.066
		l-73.281,73.281l-1.064-0.005l-11.363-11.358l-0.002-1.066l33.245-33.243l-37.704-37.701l-33.243,33.244h-1.061l-11.26-11.263
		v-1.06L217.667,0h1.062L229.989,11.256z"/>
	<path fill="#333333" d="M402.938,25.387c15.4,15.398,15.508,34.411,3.292,46.625c-8.494,8.496-19.859,10.724-30.374,6.584
		l-8.817,58.521h-1.06l-14.552-14.55l-0.002-1.064l7.649-53.315l-7.86-7.86l-30.482,30.481h-1.062l-11.258-11.256l-0.002-1.064
		l73.283-73.283l1.065,0.003L402.938,25.387z M363.533,48.006l8.393,8.393c6.902,6.902,14.336,7.542,20.286,1.595
		c5.945-5.948,5.204-13.276-1.7-20.181l-8.393-8.391L363.533,48.006z"/>
	<path fill="#333333" d="M568.794,109.288c-21.561,21.559-56.396,21.137-78.062-0.53c-21.772-21.771-22.092-56.502-0.532-78.062
		c21.562-21.56,56.293-21.243,78.063,0.531C589.932,52.892,590.354,87.727,568.794,109.288z M504.219,44.714
		c-14.441,14.442-14.55,37.065-0.528,51.087c14.02,14.02,36.641,13.912,51.085-0.532c14.445-14.443,14.553-37.064,0.531-51.086
		C541.288,30.163,518.662,30.269,504.219,44.714z"/>
	<path fill="#333333" d="M301.633,227.256l1.592-0.53l54.803,5.523l-5.629-54.697l0.532-1.594l11.044-11.045h1.062l73.285,73.283
		v1.06l-11.365,11.366h-1.061l-55.018-55.016l5.416,53.846l-1.062,1.062l-53.953-5.308l55.016,55.016v1.062l-11.258,11.255
		l-1.064,0.003l-73.281-73.283l0.002-1.062L301.633,227.256z"/>
	<path fill="#333333" d="M496.664,184.764h1.06L600,229.05v1.062l-13.063,13.064h-1.062l-22.303-9.982l-30.271,30.269l9.882,22.408
		l-0.005,1.063l-13.061,13.063h-1.062l-44.185-102.382v-1.062L496.664,184.764z M525.441,246.68l21.348-21.348l-39.399-17.947
		L525.441,246.68z"/>
</g>
</svg>
