<?xml version="1.0" encoding="utf-8"?>
<!-- Generator: Adobe Illustrator 16.0.3, SVG Export Plug-In . SVG Version: 6.00 Build 0)  -->
<!DOCTYPE svg PUBLIC "-//W3C//DTD SVG 1.1//EN" "http://www.w3.org/Graphics/SVG/1.1/DTD/svg11.dtd">
<svg version="1.1" id="Layer_1" xmlns="http://www.w3.org/2000/svg" xmlns:xlink="http://www.w3.org/1999/xlink" x="0px" y="0px"
	 width="85px" height="12px" viewBox="0 0 85 12" enable-background="new 0 0 85 12" xml:space="preserve">
<g>
	<path fill="#333333" d="M9.684,3.121C8.643,2.24,7.282,1.68,5.922,1.68c-2.241,0-4.082,1.842-4.082,4.162
		c0,2.321,1.841,4.162,4.082,4.162c1.36,0,2.721-0.561,3.762-1.441l0.08,0.08v1.842c-1.041,0.752-2.321,1.2-3.842,1.2
		C2.641,11.685,0,9.043,0,5.842S2.641,0,5.922,0c1.521,0,2.801,0.447,3.842,1.2v1.841L9.684,3.121z"/>
	<path fill="#333333" d="M16.399,0.24l0.08,0.08v4.161h6.083V0.32l0.08-0.08h1.44l0.08,0.08v11.044l-0.08,0.08h-1.44l-0.08-0.08
		V6.082h-6.083v5.282l-0.08,0.08h-1.44l-0.08-0.08V0.32l0.08-0.08H16.399z"/>
	<path fill="#333333" d="M32.8,0.24c2.241,0,3.682,1.36,3.682,3.201c0,1.28-0.72,2.4-1.921,2.881l3.682,5.042l-0.08,0.08h-1.921
		l-0.08-0.08L32.64,6.643h-1.44v4.722l-0.08,0.08h-1.44l-0.08-0.08V0.32l0.08-0.08H32.8z M31.199,5.042H32.8
		c1.201,0,1.841-0.641,1.841-1.601c0-0.961-0.64-1.602-1.841-1.602h-1.601V5.042z"/>
	<path fill="#333333" d="M53.124,5.842c0,3.218-2.657,5.843-5.923,5.843s-5.922-2.625-5.922-5.843C41.279,2.625,43.936,0,47.201,0
		S53.124,2.625,53.124,5.842z M43.119,5.842c0,2.305,1.825,4.162,4.082,4.162s4.082-1.857,4.082-4.162S49.458,1.68,47.201,1.68
		S43.119,3.537,43.119,5.842z"/>
	<path fill="#333333" d="M59.519,0.24l0.16,0.08l4.002,4.881l4.002-4.881l0.16-0.08h1.36l0.08,0.08v11.044l-0.08,0.08h-1.44
		l-0.08-0.08V2.641l-3.922,4.803h-0.16l-3.922-4.803v8.724l-0.08,0.08h-1.44l-0.08-0.08V0.32l0.08-0.08H59.519z"/>
	<path fill="#333333" d="M79.601,0.24l0.08,0.08l4.482,11.044l-0.08,0.08h-1.601l-0.08-0.08l-1.041-2.562h-4.962l-1.04,2.562
		l-0.08,0.08h-1.601l-0.08-0.08L78.08,0.32l0.08-0.08H79.601z M77.04,7.203h3.682L78.881,2.48L77.04,7.203z"/>
</g>
<rect x="1.333" y="-14.278" fill="none" width="98.479" height="12.852"/>
<text transform="matrix(1 0 0 1 1.334 -3.0752)" fill="#333333" font-family="'P22UndergroundPro-Medium'" font-size="16" letter-spacing="2">chroma</text>
</svg>
