<?xml version="1.0" encoding="utf-8"?>
<!-- Generator: Adobe Illustrator 16.0.3, SVG Export Plug-In . SVG Version: 6.00 Build 0)  -->
<!DOCTYPE svg PUBLIC "-//W3C//DTD SVG 1.1//EN" "http://www.w3.org/Graphics/SVG/1.1/DTD/svg11.dtd">
<svg version="1.1" id="Layer_1" xmlns="http://www.w3.org/2000/svg" xmlns:xlink="http://www.w3.org/1999/xlink" x="0px" y="0px"
	 width="210px" height="80px" viewBox="0 0 210 80" enable-background="new 0 0 210 80" xml:space="preserve">
<polyline fill="none" stroke="#333333" stroke-width="2" stroke-miterlimit="10" points="161.999,9 154.999,2 147.999,9 141,2 
	134,9 127,2 120,9 113,2 106,9 99,2 92,9 85,2 78,9 71,2 64,9 57,2 50,9 43,2 36,9 29,2 22,9 15,2 8,9 1,2 "/>
<polyline fill="none" stroke="#333333" stroke-width="2" stroke-miterlimit="10" points="208.999,78 201.999,71 194.999,78 188,71 
	181,78 174,71 167,78 160,71 153,78 146,71 139,78 132,71 125,78 118,71 111,78 104,71 97,78 90,71 83,78 76,71 69,78 62,71 55,78 
	48,71 "/>
</svg>
