<?xml version="1.0" encoding="utf-8"?>
<!-- Generator: Adobe Illustrator 16.0.3, SVG Export Plug-In . SVG Version: 6.00 Build 0)  -->
<!DOCTYPE svg PUBLIC "-//W3C//DTD SVG 1.1//EN" "http://www.w3.org/Graphics/SVG/1.1/DTD/svg11.dtd">
<svg version="1.1" id="Layer_1" xmlns="http://www.w3.org/2000/svg" xmlns:xlink="http://www.w3.org/1999/xlink" x="0px" y="0px"
	 width="210px" height="80px" viewBox="0 0 210 80" enable-background="new 0 0 210 80" xml:space="preserve">
<polyline fill="none" stroke="#333333" stroke-width="2" stroke-miterlimit="10" points="48,9 55,2 62,9 68.999,2 75.999,9 
	82.999,2 89.999,9 96.999,2 103.999,9 110.999,2 117.999,9 124.999,2 131.999,9 138.999,2 145.999,9 152.999,2 159.999,9 166.999,2 
	173.999,9 180.999,2 187.999,9 194.999,2 201.999,9 208.999,2 "/>
<polyline fill="none" stroke="#333333" stroke-width="2" stroke-miterlimit="10" points="1,78 8,71 15,78 21.999,71 28.999,78 
	35.999,71 42.999,78 49.999,71 56.999,78 63.999,71 70.999,78 77.999,71 84.999,78 91.999,71 98.999,78 105.999,71 112.999,78 
	119.999,71 126.999,78 133.999,71 140.999,78 147.999,71 154.999,78 161.999,71 "/>
</svg>
